<svg id="Layer_1" data-name="Layer 1" xmlns="http://www.w3.org/2000/svg" viewBox="0 0 129.94 335.76"><defs><style>.cls-1,.cls-2{fill:none;}.cls-2{stroke:#fff;stroke-width:0.51px;}.cls-3{fill:#ffbc0f;}.cls-4{fill:#fff;}.cls-5{fill:#050505;}</style></defs><rect class="cls-1" width="129.94" height="335.76"/><path class="cls-2" d="M-161.64,403V213.14" transform="translate(187.63 -155.28)"/><rect class="cls-3" x="50.59" y="57.52" width="37.42" height="9.36" rx="0.93"/><path class="cls-4" d="M-133.73,232.55h.67l-1.51-3.89h-.79l-1.51,3.89h.67l.39-1.05h1.69Zm-1.85-1.64.61-1.62.62,1.62Zm4.73-1.48a1.24,1.24,0,0,0-1.07.59v-.52h-.62v4.43h.62V232a1.25,1.25,0,0,0,1.07.57,1.46,1.46,0,0,0,1.41-1.59A1.46,1.46,0,0,0-130.85,229.43ZM-131,232a.93.93,0,0,1-.94-1,.93.93,0,0,1,.94-1,.92.92,0,0,1,.91,1A.92.92,0,0,1-131,232Zm3.89-2.58a1.23,1.23,0,0,0-1.07.59v-.52h-.62v4.43h.62V232a1.24,1.24,0,0,0,1.07.57,1.45,1.45,0,0,0,1.4-1.59A1.46,1.46,0,0,0-127.09,229.43Zm-.14,2.58a.93.93,0,0,1-.93-1,.93.93,0,0,1,.93-1,.91.91,0,0,1,.91,1A.91.91,0,0,1-127.23,232Zm2.18.54h.63v-4.27H-125Zm1.66-4.43a.39.39,0,0,0-.41.38.4.4,0,0,0,.41.4.39.39,0,0,0,.41-.4A.38.38,0,0,0-123.39,228.12Zm-.31,4.43h.63V229.5h-.63Zm2.83.06a1.45,1.45,0,0,0,1.5-1.18H-120a.87.87,0,0,1-.86.6,1,1,0,0,1-.95-1,.94.94,0,0,1,1-1,.85.85,0,0,1,.85.59h.64a1.45,1.45,0,0,0-1.49-1.17,1.55,1.55,0,0,0-1.59,1.59A1.55,1.55,0,0,0-120.87,232.61Zm4.45-3.11V230a1.23,1.23,0,0,0-1.07-.59,1.46,1.46,0,0,0-1.4,1.59,1.45,1.45,0,0,0,1.41,1.59,1.23,1.23,0,0,0,1.06-.57v.51h.63V229.5Zm-.93,2.51a.91.91,0,0,1-.91-1,.92.92,0,0,1,.91-1,.94.94,0,0,1,.94,1A.93.93,0,0,1-117.35,232Zm4.5-.13a2.22,2.22,0,0,1-.65.15c-.4,0-.6-.24-.6-.69v-1.26h1.25v-.58h-1.25v-.84l-.63.14v.7h-.56v.58h.56v1.3a1.08,1.08,0,0,0,1.12,1.23,1.9,1.9,0,0,0,.87-.22Zm1-3.76a.38.38,0,0,0-.4.38.39.39,0,0,0,.4.4.39.39,0,0,0,.41-.4A.38.38,0,0,0-111.86,228.12Zm-.31,4.43h.63V229.5h-.63Zm2.83-3.12a1.56,1.56,0,0,0-1.58,1.59,1.56,1.56,0,0,0,1.58,1.59,1.55,1.55,0,0,0,1.58-1.59A1.55,1.55,0,0,0-109.34,229.43Zm0,.6a.94.94,0,0,1,1,1,.94.94,0,0,1-1,1,.93.93,0,0,1-.94-1A.94.94,0,0,1-109.34,230Zm3.86-.6a1.12,1.12,0,0,0-1,.57v-.5h-.63v3.05h.63V231c0-.59.29-.94.82-.94s.67.25.67.72v1.8h.63v-1.93A1.06,1.06,0,0,0-105.48,229.43Zm5.19,0a1.22,1.22,0,0,0-1.07.59v-.52H-102v4.43h.63V232a1.22,1.22,0,0,0,1.06.57A1.45,1.45,0,0,0-98.89,231,1.46,1.46,0,0,0-100.29,229.43Zm-.14,2.58a.93.93,0,0,1-.94-1,.94.94,0,0,1,.94-1,.92.92,0,0,1,.91,1A.92.92,0,0,1-100.43,232Zm3.81-2.58a1,1,0,0,0-1,.67v-.6h-.63v3.05h.63v-1.4a.94.94,0,0,1,1-1.08h.19v-.63Zm2.11,0A1.56,1.56,0,0,0-96.09,231a1.56,1.56,0,0,0,1.58,1.59A1.55,1.55,0,0,0-92.93,231,1.56,1.56,0,0,0-94.51,229.43Zm0,.6a1,1,0,0,1,1,1,.94.94,0,0,1-1,1,.94.94,0,0,1-.95-1A.94.94,0,0,1-94.51,230Zm3.68,2.58a1.47,1.47,0,0,0,1.51-1.18H-90a.87.87,0,0,1-.86.6.94.94,0,0,1-.94-1,.94.94,0,0,1,1-1,.85.85,0,0,1,.85.59h.65a1.47,1.47,0,0,0-1.5-1.17A1.55,1.55,0,0,0-92.41,231,1.55,1.55,0,0,0-90.83,232.61Zm3.56-3.18a1.54,1.54,0,0,0-1.58,1.6,1.53,1.53,0,0,0,1.59,1.58,1.48,1.48,0,0,0,1.47-1h-.65a.86.86,0,0,1-.82.45.9.9,0,0,1-.95-.87h2.48A1.53,1.53,0,0,0-87.27,229.43Zm0,.54a.87.87,0,0,1,.87.71h-1.78A.91.91,0,0,1-87.27,230Zm3.5,2.64c.72,0,1.3-.32,1.3-1s-.47-.74-1.3-.94c-.53-.12-.72-.17-.72-.37s.24-.35.64-.35.62.13.71.38h.64a1.2,1.2,0,0,0-1.33-.93c-.77,0-1.29.35-1.29,1s.36.68,1.21.89c.51.12.8.16.8.42s-.25.35-.65.35-.78-.16-.87-.5h-.64A1.36,1.36,0,0,0-83.77,232.61Zm3.23,0c.72,0,1.31-.32,1.31-1s-.47-.74-1.3-.94c-.53-.12-.72-.17-.72-.37s.24-.35.64-.35.62.13.71.38h.63a1.19,1.19,0,0,0-1.33-.93c-.76,0-1.28.35-1.28,1s.36.68,1.21.89c.51.12.8.16.8.42s-.25.35-.66.35-.77-.16-.87-.5H-82A1.35,1.35,0,0,0-80.54,232.61Z" transform="translate(187.63 -155.28)"/><path class="cls-5" d="M-132.19,215.92c-.89,0-1.42.66-1.42,1.76s.53,1.76,1.42,1.76,1.41-.67,1.41-1.76S-131.3,215.92-132.19,215.92Zm0,3c-.54,0-.86-.38-.86-1.23s.32-1.23.86-1.23.86.38.86,1.23S-131.65,218.91-132.19,218.91Zm4.6-.83h-.49V216h-.81l-1.49,2.1v.52h1.75v.78h.55v-.78h.49Zm-2.19,0,1.11-1.59h0v1.59Zm3.09.67a.34.34,0,0,0-.36.34.34.34,0,0,0,.36.35.35.35,0,0,0,.36-.35A.34.34,0,0,0-126.69,218.75Zm2.23-2.83c-.88,0-1.41.66-1.41,1.76s.53,1.76,1.41,1.76,1.42-.67,1.42-1.76S-123.57,215.92-124.46,215.92Zm0,3c-.54,0-.86-.38-.86-1.23s.32-1.23.86-1.23.87.38.87,1.23S-123.91,218.91-124.46,218.91Zm3.31-1.79a1.05,1.05,0,0,0-.67.21l.17-.82h1.49V216h-1.9l-.42,2h.53a.77.77,0,0,1,.69-.36.65.65,0,0,1,.7.66.68.68,0,0,1-.71.69.73.73,0,0,1-.77-.58h-.55a1.23,1.23,0,0,0,1.32,1.1,1.19,1.19,0,0,0,1.27-1.2A1.09,1.09,0,0,0-121.15,217.12Zm3.34.55h-1.6v.52h1.6Zm2.06-1.75c-.88,0-1.41.66-1.41,1.76s.53,1.76,1.41,1.76,1.42-.67,1.42-1.76S-114.86,215.92-115.75,215.92Zm0,3c-.54,0-.86-.38-.86-1.23s.32-1.23.86-1.23.86.38.86,1.23S-115.21,218.91-115.75,218.91Zm3.85-1.31a.77.77,0,0,0,.46-.72,1,1,0,0,0-1.16-1,1.05,1.05,0,0,0-1.18,1,.77.77,0,0,0,.46.72.84.84,0,0,0-.57.84c0,.62.56,1,1.29,1s1.27-.38,1.27-1A.84.84,0,0,0-111.9,217.6Zm-.7-1.16c.39,0,.62.2.62.5s-.17.45-.62.45-.63-.19-.63-.45S-113,216.44-112.6,216.44Zm0,2.48c-.45,0-.74-.19-.74-.53s.26-.53.74-.53.72.17.72.53S-112.16,218.92-112.6,218.92Zm2.22-.17a.33.33,0,0,0-.35.34.34.34,0,0,0,.35.35.34.34,0,0,0,.36-.35A.34.34,0,0,0-110.38,218.75Zm2.24-2.83c-.89,0-1.41.66-1.41,1.76s.52,1.76,1.41,1.76,1.41-.67,1.41-1.76S-107.25,215.92-108.14,215.92Zm0,3c-.54,0-.86-.38-.86-1.23s.32-1.23.86-1.23.86.38.86,1.23S-107.6,218.91-108.14,218.91Zm3.31-1.83a1.12,1.12,0,0,0-.53.13l1-1.23h-.65c-.79,1.06-1.22,1.57-1.22,2.21a1.22,1.22,0,0,0,1.29,1.25,1.22,1.22,0,0,0,1.3-1.24A1.09,1.09,0,0,0-104.83,217.08Zm-.16,1.83a.69.69,0,0,1-.73-.71.68.68,0,0,1,.74-.7.69.69,0,0,1,.74.7A.7.7,0,0,1-105,218.91Z" transform="translate(187.63 -155.28)"/><path class="cls-4" d="M-134.49,237.37v-.25h-2.09v3.39h.25V238.9h1.73v-.24h-1.73v-1.29Zm.67-.67a.2.2,0,0,0-.2.2.19.19,0,0,0,.2.2.2.2,0,0,0,.21-.2A.2.2,0,0,0-133.82,236.7Zm-.13,3.81h.26v-2.66h-.26Zm1.08,0h.26v-3.73h-.26Zm1.05,0h.26v-3.73h-.26Zm4.32-.32a1.54,1.54,0,0,1-.59.14c-.48,0-.72-.31-.72-.84v-1.4h1.31v-.24h-1.31v-.73l-.25.06v.67h-.54v.24h.54v1.41c0,.68.34,1.07.93,1.07a1.66,1.66,0,0,0,.68-.16Zm1.94-2.4a1,1,0,0,0-1,.67v-1.68h-.26v3.73h.26v-1.34c0-.67.34-1.13,1-1.13a.71.71,0,0,1,.77.81v1.66h.26v-1.69A.91.91,0,0,0-125.56,237.79Zm3,0a1.33,1.33,0,0,0-1.35,1.4,1.31,1.31,0,0,0,1.36,1.38,1.29,1.29,0,0,0,1.24-.78h-.27a1,1,0,0,1-1,.53,1.05,1.05,0,0,1-1.11-1.06h2.41A1.31,1.31,0,0,0-122.6,237.79Zm0,.25a1,1,0,0,1,1,1h-2.13A1.06,1.06,0,0,1-122.6,238Zm5.66-.19v.64a1.22,1.22,0,0,0-1.12-.7,1.28,1.28,0,0,0-1.26,1.39,1.28,1.28,0,0,0,1.27,1.39,1.23,1.23,0,0,0,1.11-.69v.63h.26v-2.66Zm-1.08,2.47a1,1,0,0,1-1-1.14,1,1,0,0,1,1-1.14,1.09,1.09,0,0,1,1.09,1.14A1.08,1.08,0,0,1-118,240.32Zm3.53-2.53a1.24,1.24,0,0,0-1.12.7v-.64h-.25v3.88h.25v-1.86a1.24,1.24,0,0,0,1.12.7,1.28,1.28,0,0,0,1.27-1.39A1.28,1.28,0,0,0-114.49,237.79Zm0,2.53a1.08,1.08,0,0,1-1.09-1.14,1.09,1.09,0,0,1,1.09-1.14,1,1,0,0,1,1,1.14A1.05,1.05,0,0,1-114.52,240.32Zm3.36-2.53a1.24,1.24,0,0,0-1.12.7v-.64h-.25v3.88h.25v-1.86a1.24,1.24,0,0,0,1.12.7,1.28,1.28,0,0,0,1.27-1.39A1.28,1.28,0,0,0-111.16,237.79Zm0,2.53a1.08,1.08,0,0,1-1.09-1.14,1.09,1.09,0,0,1,1.09-1.14,1,1,0,0,1,1,1.14A1.05,1.05,0,0,1-111.19,240.32Zm2,.19h.26v-3.73h-.26Zm1.16-3.81a.2.2,0,0,0-.2.2.19.19,0,0,0,.2.2.2.2,0,0,0,.21-.2A.2.2,0,0,0-108,236.7Zm-.13,3.81h.26v-2.66h-.26Zm2.3.06a1.31,1.31,0,0,0,1.28-.94h-.27a1,1,0,0,1-1,.7,1.1,1.1,0,0,1-1.11-1.15,1.1,1.1,0,0,1,1.11-1.14,1,1,0,0,1,1,.69h.27a1.31,1.31,0,0,0-1.28-.94,1.35,1.35,0,0,0-1.37,1.39A1.35,1.35,0,0,0-105.88,240.57Zm4.16-2.72v.64a1.22,1.22,0,0,0-1.12-.7,1.28,1.28,0,0,0-1.26,1.39,1.28,1.28,0,0,0,1.26,1.39,1.23,1.23,0,0,0,1.12-.69v.63h.25v-2.66Zm-1.08,2.47a1.06,1.06,0,0,1-1-1.14,1.06,1.06,0,0,1,1-1.14,1.08,1.08,0,0,1,1.08,1.14A1.08,1.08,0,0,1-102.8,240.32Zm4-.13a1.54,1.54,0,0,1-.59.14c-.49,0-.72-.31-.72-.84v-1.4h1.3v-.24h-1.3v-.73l-.26.06v.67h-.53v.24h.53v1.41c0,.68.34,1.07.94,1.07a1.66,1.66,0,0,0,.68-.16Zm.76-3.49a.21.21,0,0,0-.21.2.2.2,0,0,0,.21.2.2.2,0,0,0,.21-.2A.2.2,0,0,0-98.07,236.7Zm-.13,3.81h.26v-2.66h-.26Zm2.29-2.72a1.36,1.36,0,0,0-1.36,1.39,1.35,1.35,0,0,0,1.36,1.39,1.35,1.35,0,0,0,1.37-1.39A1.36,1.36,0,0,0-95.91,237.79Zm0,.25a1.1,1.1,0,0,1,1.11,1.14,1.1,1.1,0,0,1-1.11,1.14,1.1,1.1,0,0,1-1.1-1.14A1.09,1.09,0,0,1-95.91,238Zm3.32-.25a1.05,1.05,0,0,0-1,.68v-.62h-.25v2.66h.25v-1.34c0-.67.35-1.13,1-1.13a.71.71,0,0,1,.76.81v1.66h.26v-1.69A.91.91,0,0,0-92.59,237.79Zm-42.81,5.06a1,1,0,0,1,.42.08l0,0,.05-.23a1.62,1.62,0,0,0-.54-.1c-.61,0-1,.42-1,1.09v0h-.53V244h.53v2.43h.26V244h1.17v-.24h-1.17v0C-136.11,243.18-135.91,242.85-135.4,242.85Zm2.15.83a1.36,1.36,0,0,0-1.37,1.39,1.35,1.35,0,0,0,1.37,1.39,1.35,1.35,0,0,0,1.36-1.39A1.36,1.36,0,0,0-133.25,243.68Zm0,.25a1.1,1.1,0,0,1,1.1,1.14,1.1,1.1,0,0,1-1.1,1.14,1.1,1.1,0,0,1-1.11-1.14A1.1,1.1,0,0,1-133.25,243.93Zm3.29-.25a1,1,0,0,0-1,.72v-.66h-.26v2.67h.26v-1.3c0-.71.39-1.16,1-1.16h.17v-.26Zm3.65,0a1,1,0,0,0-.93.69.79.79,0,0,0-.84-.69.92.92,0,0,0-.9.66v-.6h-.27v2.67h.27v-1.35c0-.6.28-1.13.85-1.13s.67.25.67.76v1.72h.26v-1.35c0-.6.27-1.13.85-1.13.43,0,.66.25.66.76v1.72h.26v-1.76C-125.44,244-125.75,243.68-126.31,243.68Zm4.94,2.41a1.74,1.74,0,0,1-.59.13c-.49,0-.72-.31-.72-.84V244h1.3v-.24h-1.3V243l-.26.06v.67h-.53V244h.53v1.41c0,.68.34,1.07.94,1.07a1.66,1.66,0,0,0,.68-.16Zm1.76-2.41a1.36,1.36,0,0,0-1.36,1.39,1.35,1.35,0,0,0,1.36,1.39,1.35,1.35,0,0,0,1.37-1.39A1.36,1.36,0,0,0-119.61,243.68Zm0,.25a1.1,1.1,0,0,1,1.11,1.14,1.1,1.1,0,0,1-1.11,1.14,1.1,1.1,0,0,1-1.1-1.14A1.09,1.09,0,0,1-119.61,243.93Zm4.76-.25a1,1,0,0,0-1,.72v-.66h-.26v2.67h.26v-1.3a1,1,0,0,1,1-1.16h.17v-.26Zm1.88,0a1.33,1.33,0,0,0-1.35,1.4,1.32,1.32,0,0,0,1.37,1.38,1.28,1.28,0,0,0,1.23-.78H-112a1,1,0,0,1-1,.53,1.05,1.05,0,0,1-1.11-1.06h2.41A1.31,1.31,0,0,0-113,243.68Zm0,.25a1,1,0,0,1,1,1H-114A1.06,1.06,0,0,1-113,243.93Zm4.21-.19v.64a1.25,1.25,0,0,0-1.12-.7,1.28,1.28,0,0,0-1.26,1.39,1.28,1.28,0,0,0,1.26,1.38,1.26,1.26,0,0,0,1.12-.69v.63a.92.92,0,0,1-1,1,1,1,0,0,1-1-.69H-111a1.26,1.26,0,0,0,1.29.93,1.17,1.17,0,0,0,1.24-1.29v-2.64Zm-1.08,2.46a1.05,1.05,0,0,1-1-1.13,1.06,1.06,0,0,1,1-1.14,1.08,1.08,0,0,1,1.08,1.14A1.08,1.08,0,0,1-109.84,246.2Zm2.26-3.61a.2.2,0,0,0-.21.2.21.21,0,0,0,.21.21.2.2,0,0,0,.2-.21A.19.19,0,0,0-107.58,242.59Zm-.13,3.82h.26v-2.67h-.26Zm2.11.05c.57,0,1.06-.26,1.06-.79s-.37-.56-1-.73-.88-.23-.88-.5.32-.51.78-.51a.82.82,0,0,1,.84.49h.27a1,1,0,0,0-1.11-.74c-.59,0-1,.28-1,.78s.29.52,1.06.71c.54.14.87.2.87.52s-.37.52-.81.52-.88-.19-1-.64h-.26A1.15,1.15,0,0,0-105.6,246.46Zm3.5-.37a1.69,1.69,0,0,1-.59.13c-.48,0-.72-.31-.72-.84V244h1.31v-.24h-1.31V243l-.25.06v.67h-.54V244h.54v1.41c0,.68.34,1.07.93,1.07a1.62,1.62,0,0,0,.68-.16Zm1.75-2.41a1.33,1.33,0,0,0-1.35,1.4,1.32,1.32,0,0,0,1.37,1.38,1.28,1.28,0,0,0,1.23-.78h-.27a1,1,0,0,1-1,.53,1.05,1.05,0,0,1-1.11-1.06H-99A1.31,1.31,0,0,0-100.35,243.68Zm0,.25a1,1,0,0,1,1,1h-2.13A1.06,1.06,0,0,1-100.35,243.93Zm3.22-.25a1,1,0,0,0-1,.72v-.66h-.26v2.67h.26v-1.3a1,1,0,0,1,1-1.16H-97v-.26Z" transform="translate(187.63 -155.28)"/><rect class="cls-3" x="50.59" y="106.37" width="37.42" height="9.36" rx="0.93"/><path class="cls-4" d="M-135.22,278.77c-.64-.14-.86-.23-.86-.5s.28-.57.8-.57a.83.83,0,0,1,.9.53h.63a1.36,1.36,0,0,0-1.53-1.12c-.74,0-1.43.4-1.43,1.17s.59.94,1.35,1.11,1,.22,1,.58-.3.56-.82.56-.91-.23-1-.68h-.63a1.49,1.49,0,0,0,1.67,1.27c.69,0,1.44-.33,1.44-1.18S-134.23,279-135.22,278.77Zm3.59-.83a1.54,1.54,0,0,0-1.58,1.6,1.53,1.53,0,0,0,1.59,1.58,1.48,1.48,0,0,0,1.47-1h-.65a.84.84,0,0,1-.81.45.91.91,0,0,1-1-.87h2.48A1.53,1.53,0,0,0-131.63,277.94Zm0,.54a.87.87,0,0,1,.87.71h-1.77A.89.89,0,0,1-131.63,278.48Zm2.16,2.57h.63v-4.26h-.63Zm2.82-3.11a1.53,1.53,0,0,0-1.57,1.6,1.52,1.52,0,0,0,1.58,1.58,1.48,1.48,0,0,0,1.47-1h-.65a.84.84,0,0,1-.81.45.91.91,0,0,1-1-.87h2.48A1.53,1.53,0,0,0-126.65,277.94Zm0,.54a.87.87,0,0,1,.87.71h-1.77A.89.89,0,0,1-126.65,278.48Zm3.63,2.64a1.48,1.48,0,0,0,1.51-1.18h-.65a.87.87,0,0,1-.86.6.94.94,0,0,1-.94-1,.94.94,0,0,1,.95-1,.85.85,0,0,1,.85.59h.65a1.47,1.47,0,0,0-1.5-1.17,1.55,1.55,0,0,0-1.59,1.59A1.55,1.55,0,0,0-123,281.12Zm4.29-.73a2.22,2.22,0,0,1-.65.15c-.4,0-.6-.24-.6-.69v-1.26h1.25V278H-120v-.84l-.63.14v.7h-.56v.58h.56v1.3a1.08,1.08,0,0,0,1.12,1.23,1.9,1.9,0,0,0,.87-.22Zm1-3.76a.38.38,0,0,0-.4.38.39.39,0,0,0,.4.4.39.39,0,0,0,.41-.4A.38.38,0,0,0-117.74,276.63Zm-.31,4.42h.63v-3H-118Zm2.83-3.11a1.56,1.56,0,0,0-1.58,1.59,1.56,1.56,0,0,0,1.58,1.59,1.55,1.55,0,0,0,1.58-1.59A1.55,1.55,0,0,0-115.22,277.94Zm0,.6a.94.94,0,0,1,1,1,.94.94,0,0,1-1,1,.93.93,0,0,1-.94-1A.94.94,0,0,1-115.22,278.54Zm3.86-.6a1.12,1.12,0,0,0-1,.57V278H-113v3h.63v-1.58c0-.58.29-.93.82-.93s.67.25.67.72v1.79h.63v-1.92A1.06,1.06,0,0,0-111.36,277.94Zm5.84.07v.52a1.26,1.26,0,0,0-1.07-.59,1.46,1.46,0,0,0-1.41,1.57,1.45,1.45,0,0,0,1.41,1.58,1.26,1.26,0,0,0,1.07-.57V281a.8.8,0,0,1-.87.91.8.8,0,0,1-.85-.58h-.65a1.42,1.42,0,0,0,1.52,1.14A1.38,1.38,0,0,0-104.9,281v-3Zm-.94,2.48a.92.92,0,0,1-.91-1,.91.91,0,0,1,.91-1,.93.93,0,0,1,.94,1A.93.93,0,0,1-106.46,280.49Zm4.67-2.48v.52a1.24,1.24,0,0,0-1.07-.59,1.46,1.46,0,0,0-1.41,1.59,1.46,1.46,0,0,0,1.41,1.59,1.24,1.24,0,0,0,1.07-.58v.51h.62v-3Zm-.94,2.51a.92.92,0,0,1-.91-1,.92.92,0,0,1,.91-1,.93.93,0,0,1,.94,1A.93.93,0,0,1-102.73,280.52Zm4.5-.13a2.22,2.22,0,0,1-.65.15c-.39,0-.6-.24-.6-.69v-1.26h1.25V278h-1.25v-.84l-.62.14v.7h-.57v.58h.57v1.3A1.08,1.08,0,0,0-99,281.12a1.9,1.9,0,0,0,.87-.22Zm2-2.45a1.53,1.53,0,0,0-1.57,1.6,1.52,1.52,0,0,0,1.58,1.58,1.48,1.48,0,0,0,1.47-1h-.65a.84.84,0,0,1-.81.45.9.9,0,0,1-1-.87h2.47A1.53,1.53,0,0,0-96.22,277.94Zm0,.54a.87.87,0,0,1,.87.71h-1.77A.9.9,0,0,1-96.22,278.48Z" transform="translate(187.63 -155.28)"/><path class="cls-4" d="M-135.42,285.44c-.81-.18-1-.31-1-.64s.39-.71.94-.71a1,1,0,0,1,1,.58h.25a1.21,1.21,0,0,0-1.3-.83c-.66,0-1.18.35-1.18,1s.46.73,1.23.91,1,.25,1,.68-.38.72-1,.72a1,1,0,0,1-1.15-.79h-.26a1.28,1.28,0,0,0,1.42,1c.67,0,1.22-.32,1.22-1S-134.66,285.61-135.42,285.44Zm3.18-.87a1,1,0,0,0-1,.67v-1.68h-.25v3.73h.25v-1.35c0-.66.35-1.12,1-1.12a.71.71,0,0,1,.77.81v1.66h.25v-1.7A.91.91,0,0,0-132.24,284.57Zm3,0a1.36,1.36,0,0,0-1.37,1.39,1.36,1.36,0,0,0,1.37,1.39A1.36,1.36,0,0,0-127.9,286,1.36,1.36,0,0,0-129.26,284.57Zm0,.25a1.09,1.09,0,0,1,1.1,1.14,1.1,1.1,0,0,1-1.1,1.14,1.1,1.1,0,0,1-1.11-1.14A1.1,1.1,0,0,1-129.26,284.82Zm3.29-.25a1,1,0,0,0-1,.72v-.67h-.25v2.67h.25V286a1,1,0,0,1,1-1.17h.17v-.25Zm2.57,2.4a1.53,1.53,0,0,1-.59.13c-.49,0-.72-.31-.72-.83v-1.4h1.3v-.25h-1.3v-.72l-.26.05v.67h-.53v.25h.53v1.41c0,.67.35,1.07.94,1.07a1.66,1.66,0,0,0,.68-.16Zm3.33-2.4a1.36,1.36,0,0,0-1.37,1.39,1.36,1.36,0,0,0,1.37,1.39A1.36,1.36,0,0,0-118.7,286,1.36,1.36,0,0,0-120.07,284.57Zm0,.25A1.1,1.1,0,0,1-119,286a1.1,1.1,0,0,1-1.11,1.14,1.1,1.1,0,0,1-1.11-1.14A1.1,1.1,0,0,1-120.07,284.82Zm3.31-.25a1,1,0,0,0-1,.68v-.63H-118v2.67h.26v-1.35c0-.66.35-1.12,1-1.12a.71.71,0,0,1,.76.81v1.66h.25v-1.7A.91.91,0,0,0-116.76,284.57Zm1.75,2.72h.27v-3.73H-115Zm1.16-3.81a.2.2,0,0,0-.2.2.2.2,0,0,0,.2.2.2.2,0,0,0,.21-.2A.2.2,0,0,0-113.85,283.48Zm-.12,3.81h.25v-2.67H-114Zm2.33-2.72a1,1,0,0,0-1,.68v-.63h-.26v2.67h.26v-1.35c0-.66.34-1.12,1-1.12.47,0,.75.27.75.81v1.66h.26v-1.7A.91.91,0,0,0-111.64,284.57Zm3,0A1.33,1.33,0,0,0-110,286a1.32,1.32,0,0,0,1.37,1.38,1.28,1.28,0,0,0,1.23-.78h-.27a1,1,0,0,1-1,.53,1,1,0,0,1-1.1-1.06h2.4A1.31,1.31,0,0,0-108.69,284.57Zm0,.24a1,1,0,0,1,1,1h-2.13A1.07,1.07,0,0,1-108.69,284.81Zm5.25,2.16a1.53,1.53,0,0,1-.59.13c-.49,0-.72-.31-.72-.83v-1.4h1.3v-.25h-1.3v-.72l-.26.05v.67h-.53v.25h.53v1.41c0,.67.35,1.07.94,1.07a1.66,1.66,0,0,0,.68-.16Zm1.75-2.4A1.32,1.32,0,0,0-103,286a1.31,1.31,0,0,0,1.36,1.38,1.28,1.28,0,0,0,1.23-.78h-.26a1,1,0,0,1-1,.53,1,1,0,0,1-1.11-1.06h2.41A1.31,1.31,0,0,0-101.69,284.57Zm0,.24a1,1,0,0,1,1,1h-2.13A1.07,1.07,0,0,1-101.69,284.81Zm3,2.54c.58,0,1.07-.26,1.07-.79s-.38-.56-1.06-.74-.87-.22-.87-.5.32-.5.78-.5a.8.8,0,0,1,.84.49h.26a1,1,0,0,0-1.11-.74c-.58,0-1,.28-1,.77s.29.53,1,.72c.55.14.87.2.87.52s-.36.52-.8.52-.88-.19-1-.64H-100A1.16,1.16,0,0,0-98.69,287.35Zm3.51-.38a1.53,1.53,0,0,1-.59.13c-.49,0-.72-.31-.72-.83v-1.4h1.3v-.25h-1.3v-.72l-.26.05v.67h-.53v.25h.53v1.41c0,.67.35,1.07.94,1.07a1.66,1.66,0,0,0,.68-.16Zm.76-3.49a.2.2,0,0,0-.2.2.2.2,0,0,0,.2.2.2.2,0,0,0,.21-.2A.2.2,0,0,0-94.42,283.48Zm-.13,3.81h.26v-2.67h-.26Zm2.34-2.72a1.05,1.05,0,0,0-1,.68v-.63h-.25v2.67h.25v-1.35c0-.66.35-1.12,1-1.12a.71.71,0,0,1,.76.81v1.66h.26v-1.7A.91.91,0,0,0-92.21,284.57Zm4,.05v.64a1.23,1.23,0,0,0-1.11-.69A1.29,1.29,0,0,0-90.61,286a1.28,1.28,0,0,0,1.27,1.39,1.23,1.23,0,0,0,1.11-.69v.62a.93.93,0,0,1-1,1.05,1,1,0,0,1-1-.69h-.27a1.26,1.26,0,0,0,1.28.93,1.18,1.18,0,0,0,1.24-1.3v-2.64Zm-1.08,2.47a1.05,1.05,0,0,1-1-1.14,1.05,1.05,0,0,1,1-1.13A1.08,1.08,0,0,1-88.22,286,1.09,1.09,0,0,1-89.31,287.09Z" transform="translate(187.63 -155.28)"/><path class="cls-5" d="M-126.71,264.43c-.89,0-1.41.66-1.41,1.76s.52,1.76,1.41,1.76,1.41-.67,1.41-1.76S-125.82,264.43-126.71,264.43Zm0,3c-.54,0-.86-.38-.86-1.23s.32-1.23.86-1.23.86.38.86,1.23S-126.17,267.42-126.71,267.42Zm3.16-3a1.22,1.22,0,0,0-1.3,1.24,1.09,1.09,0,0,0,1.14,1.12,1.12,1.12,0,0,0,.53-.13l-.94,1.23h.64c.79-1.05,1.22-1.57,1.22-2.21A1.22,1.22,0,0,0-123.55,264.43Zm0,1.94a.68.68,0,0,1-.73-.7.69.69,0,0,1,.74-.71.69.69,0,0,1,.73.71A.68.68,0,0,1-123.56,266.37Zm3.5-.19h-1.6v.52h1.6Zm1.61-1.69-1.07.42v.54l.77-.32v2.76h.55v-3.4Zm1.87,0-1.07.42v.54l.77-.32v2.76h.55v-3.4Zm1.4,2.77a.34.34,0,0,0-.36.34.34.34,0,0,0,.36.35.34.34,0,0,0,.35-.35A.33.33,0,0,0-115.18,267.26Zm2.23-2.83c-.88,0-1.41.66-1.41,1.76s.53,1.76,1.41,1.76,1.42-.67,1.42-1.76S-112.06,264.43-112.95,264.43Zm0,3c-.54,0-.86-.38-.86-1.23s.32-1.23.86-1.23.86.38.86,1.23S-112.41,267.42-112.95,267.42Zm3.31-1.83a1.05,1.05,0,0,0-.52.13l.94-1.23h-.65c-.79,1.06-1.22,1.57-1.22,2.21A1.22,1.22,0,0,0-109.8,268a1.22,1.22,0,0,0,1.3-1.24A1.09,1.09,0,0,0-109.64,265.59Zm-.16,1.83a.69.69,0,0,1-.73-.71.68.68,0,0,1,.74-.7.69.69,0,0,1,.74.7A.69.69,0,0,1-109.8,267.42Z" transform="translate(187.63 -155.28)"/><rect class="cls-3" x="50.59" y="147.26" width="37.42" height="9.36" rx="0.93"/><path class="cls-4" d="M-135.22,319c-.64-.13-.86-.22-.86-.5s.28-.57.8-.57a.83.83,0,0,1,.9.53h.63a1.37,1.37,0,0,0-1.53-1.12,1.27,1.27,0,0,0-1.43,1.18c0,.72.59.93,1.35,1.1s1,.22,1,.58-.3.57-.82.57-.91-.24-1-.68h-.63a1.49,1.49,0,0,0,1.67,1.27c.69,0,1.44-.34,1.44-1.19S-134.23,319.18-135.22,319Zm3.59-.83a1.54,1.54,0,0,0-1.58,1.6,1.53,1.53,0,0,0,1.59,1.59,1.49,1.49,0,0,0,1.47-1h-.65a.85.85,0,0,1-.81.46.91.91,0,0,1-1-.87h2.48A1.54,1.54,0,0,0-131.63,318.13Zm0,.55a.86.86,0,0,1,.87.71h-1.77A.89.89,0,0,1-131.63,318.68Zm2.16,2.57h.63V317h-.63Zm2.82-3.12a1.53,1.53,0,0,0-1.57,1.6,1.53,1.53,0,0,0,1.58,1.59,1.49,1.49,0,0,0,1.47-1h-.65a.85.85,0,0,1-.81.46.91.91,0,0,1-1-.87h2.48A1.54,1.54,0,0,0-126.65,318.13Zm0,.55a.86.86,0,0,1,.87.71h-1.77A.89.89,0,0,1-126.65,318.68Zm3.63,2.64a1.48,1.48,0,0,0,1.51-1.19h-.65a.87.87,0,0,1-.86.6.93.93,0,0,1-.94-1,.94.94,0,0,1,.95-1,.86.86,0,0,1,.85.6h.65a1.47,1.47,0,0,0-1.5-1.18,1.55,1.55,0,0,0-1.59,1.59A1.56,1.56,0,0,0-123,321.32Zm4.29-.74a1.94,1.94,0,0,1-.65.15c-.4,0-.6-.24-.6-.68v-1.26h1.25v-.59H-120v-.83l-.63.14v.69h-.56v.59h.56v1.29a1.09,1.09,0,0,0,1.12,1.24,1.89,1.89,0,0,0,.87-.23Zm1-3.76a.39.39,0,0,0-.4.39.39.39,0,0,0,.4.39.39.39,0,0,0,.41-.39A.39.39,0,0,0-117.74,316.82Zm-.31,4.43h.63V318.2H-118Zm2.83-3.12a1.56,1.56,0,0,0-1.58,1.59,1.57,1.57,0,0,0,1.58,1.6,1.56,1.56,0,0,0,1.58-1.6A1.55,1.55,0,0,0-115.22,318.13Zm0,.6a1,1,0,0,1,1,1,.94.94,0,0,1-1,1,.94.94,0,0,1-.94-1A1,1,0,0,1-115.22,318.73Zm3.86-.6a1.12,1.12,0,0,0-1,.57v-.5H-113v3.05h.63v-1.58c0-.59.29-.94.82-.94s.67.25.67.72v1.8h.63v-1.93A1.06,1.06,0,0,0-111.36,318.13Zm5.84.07v.52a1.26,1.26,0,0,0-1.07-.59,1.46,1.46,0,0,0-1.41,1.58,1.45,1.45,0,0,0,1.41,1.57,1.26,1.26,0,0,0,1.07-.57v.52a.8.8,0,0,1-.87.91.79.79,0,0,1-.85-.58h-.65a1.42,1.42,0,0,0,1.52,1.14,1.38,1.38,0,0,0,1.47-1.49v-3Zm-.94,2.48a.91.91,0,0,1-.91-1,.91.91,0,0,1,.91-1,.93.93,0,0,1,.94,1A.92.92,0,0,1-106.46,320.68Zm4.67-2.48v.52a1.24,1.24,0,0,0-1.07-.59,1.46,1.46,0,0,0-1.41,1.59,1.46,1.46,0,0,0,1.41,1.6,1.24,1.24,0,0,0,1.07-.58v.51h.62V318.2Zm-.94,2.52a.92.92,0,0,1-.91-1,.92.92,0,0,1,.91-1,.93.93,0,0,1,.94,1A.94.94,0,0,1-102.73,320.72Zm4.5-.14a1.94,1.94,0,0,1-.65.15c-.39,0-.6-.24-.6-.68v-1.26h1.25v-.59h-1.25v-.83l-.62.14v.69h-.57v.59h.57v1.29A1.08,1.08,0,0,0-99,321.32a1.89,1.89,0,0,0,.87-.23Zm2-2.45a1.53,1.53,0,0,0-1.57,1.6,1.53,1.53,0,0,0,1.58,1.59,1.49,1.49,0,0,0,1.47-1h-.65a.85.85,0,0,1-.81.46.9.9,0,0,1-1-.87h2.47A1.54,1.54,0,0,0-96.22,318.13Zm0,.55a.86.86,0,0,1,.87.71h-1.77A.9.9,0,0,1-96.22,318.68Z" transform="translate(187.63 -155.28)"/><path class="cls-4" d="M-135.25,325.48h-1.33v3.39h.26v-1.25h1.07a1.06,1.06,0,0,0,1.16-1.08A1,1,0,0,0-135.25,325.48Zm0,1.89h-1.06v-1.65h1.06a.8.8,0,0,1,.9.82A.81.81,0,0,1-135.26,327.37Zm1.92-2.31a.2.2,0,0,0-.2.2.2.2,0,0,0,.2.2.2.2,0,0,0,.21-.2A.2.2,0,0,0-133.34,325.06Zm-.12,3.81h.25V326.2h-.25Zm2.89-.32a1.53,1.53,0,0,1-.59.13c-.49,0-.72-.31-.72-.83v-1.4h1.3v-.25h-1.3v-.72l-.26,0v.67h-.53v.25h.53v1.41c0,.67.35,1.06.94,1.06a1.67,1.67,0,0,0,.68-.15Zm1.87.37a1.28,1.28,0,0,0,1.28-.94h-.27a1,1,0,0,1-1,.7,1.1,1.1,0,0,1-1.11-1.14,1.11,1.11,0,0,1,1.12-1.15,1,1,0,0,1,1,.7h.27a1.28,1.28,0,0,0-1.27-.94,1.35,1.35,0,0,0-1.37,1.39A1.34,1.34,0,0,0-128.7,328.92Zm3.21-2.77a1,1,0,0,0-1,.67v-1.68h-.26v3.73h.26v-1.35c0-.66.34-1.12,1-1.12a.71.71,0,0,1,.77.81v1.66h.26v-1.7A.91.91,0,0,0-125.49,326.15Zm4.36-.67h-1.11v3.39h1.11a1.67,1.67,0,0,0,1.74-1.7A1.66,1.66,0,0,0-121.13,325.48Zm0,3.14H-122v-2.9h.86a1.43,1.43,0,0,1,1.48,1.45A1.43,1.43,0,0,1-121.12,328.62Zm3.63-2.47a1.33,1.33,0,0,0-1.35,1.4,1.31,1.31,0,0,0,1.36,1.37,1.26,1.26,0,0,0,1.23-.77h-.26a1,1,0,0,1-1,.53,1.05,1.05,0,0,1-1.11-1.06h2.41A1.31,1.31,0,0,0-117.49,326.15Zm0,.24a1,1,0,0,1,1,1h-2.13A1.07,1.07,0,0,1-117.49,326.39Zm3.19,2.53A1.29,1.29,0,0,0-113,328h-.27a1,1,0,0,1-1,.7,1.1,1.1,0,0,1-1.11-1.14,1.11,1.11,0,0,1,1.12-1.15,1,1,0,0,1,1,.7h.27a1.28,1.28,0,0,0-1.27-.94,1.35,1.35,0,0,0-1.38,1.39A1.34,1.34,0,0,0-114.3,328.92Zm4.13-.05-1.65-1.41,1.51-1.26h-.35l-1.45,1.22v-2.28h-.26v3.73h.26v-1.34l1.59,1.34Zm3.26-2.72a1,1,0,0,0-1,.72v-.67h-.26v2.67h.26v-1.29c0-.72.4-1.17,1-1.17h.17v-.26Zm1.88,0a1.33,1.33,0,0,0-1.35,1.4,1.31,1.31,0,0,0,1.37,1.37,1.27,1.27,0,0,0,1.23-.77H-104a1,1,0,0,1-1,.53,1.05,1.05,0,0,1-1.11-1.06h2.41A1.31,1.31,0,0,0-105,326.15Zm0,.24a1,1,0,0,1,1,1h-2.13A1.06,1.06,0,0,1-105,326.39Zm3.78-.19-.94,2.43-.93-2.43h-.28l1.05,2.67h.33l1-2.67Zm.94-1.14a.21.21,0,0,0-.21.2.21.21,0,0,0,.21.2.2.2,0,0,0,.21-.2A.2.2,0,0,0-100.31,325.06Zm-.13,3.81h.26V326.2h-.26Zm2.28-2.72a1.32,1.32,0,0,0-1.35,1.4,1.3,1.3,0,0,0,1.36,1.37,1.27,1.27,0,0,0,1.23-.77h-.27a1,1,0,0,1-1,.53,1,1,0,0,1-1.1-1.06h2.4A1.31,1.31,0,0,0-98.16,326.15Zm0,.24a1,1,0,0,1,1,1h-2.13A1.07,1.07,0,0,1-98.16,326.39Zm5.1-.19-.26.84-.47,1.56-.46-1.56-.25-.84h-.33l-.26.84-.46,1.57L-96,327l-.26-.84h-.26l.81,2.67h.33l.27-.9.43-1.49h0l.43,1.49.28.9h.32l.82-2.67Z" transform="translate(187.63 -155.28)"/><path class="cls-5" d="M-126.92,305.73l-1.08.41v.54l.78-.31v2.75h.54v-3.39Zm2.87,1.61a.75.75,0,0,0,.44-.7,1.05,1.05,0,0,0-1.18-1,1.15,1.15,0,0,0-1.25,1h.56a.61.61,0,0,1,.67-.51c.41,0,.65.21.65.52s-.23.43-.64.43h-.36v.48h.46c.47,0,.64.2.64.49s-.24.55-.69.55a.7.7,0,0,1-.78-.55h-.55a1.21,1.21,0,0,0,1.33,1.07c.74,0,1.25-.38,1.25-1A.82.82,0,0,0-124,307.34Zm2.74.07h-1.6v.52h1.6Zm1.62-1.68-1.07.41v.54l.77-.31v2.75h.55v-3.39Zm2.29,1.13a1.08,1.08,0,0,0-.68.21l.18-.82h1.48v-.52h-1.89l-.42,1.95h.52a.76.76,0,0,1,.69-.36.65.65,0,0,1,.71.66.68.68,0,0,1-.72.68.71.71,0,0,1-.76-.58h-.56a1.24,1.24,0,0,0,1.33,1.1,1.18,1.18,0,0,0,1.26-1.2A1.09,1.09,0,0,0-117.4,306.86Zm2,1.64a.33.33,0,0,0-.36.33.34.34,0,0,0,.36.35.34.34,0,0,0,.35-.35A.33.33,0,0,0-115.39,308.5Zm2.23-2.83c-.88,0-1.41.65-1.41,1.75s.53,1.76,1.41,1.76,1.42-.67,1.42-1.76S-112.27,305.67-113.16,305.67Zm0,3c-.54,0-.86-.38-.86-1.24s.32-1.23.86-1.23.86.38.86,1.23S-112.62,308.66-113.16,308.66Zm3.31-1.84a1.06,1.06,0,0,0-.52.14l.94-1.23h-.65c-.79,1-1.22,1.57-1.22,2.21a1.22,1.22,0,0,0,1.29,1.24,1.22,1.22,0,0,0,1.3-1.24A1.09,1.09,0,0,0-109.85,306.82Zm-.16,1.84a.69.69,0,0,1-.73-.71.69.69,0,0,1,.74-.71.69.69,0,0,1,.74.7A.7.7,0,0,1-110,308.66Z" transform="translate(187.63 -155.28)"/><rect class="cls-3" x="50.59" y="188.84" width="37.42" height="9.36" rx="0.93"/><path class="cls-4" d="M-135.22,360.2c-.64-.14-.86-.23-.86-.51s.28-.57.8-.57a.83.83,0,0,1,.9.53h.63a1.37,1.37,0,0,0-1.53-1.12,1.27,1.27,0,0,0-1.43,1.18c0,.73.59.94,1.35,1.1s1,.22,1,.59-.3.56-.82.56-.91-.23-1-.68h-.63a1.49,1.49,0,0,0,1.67,1.27c.69,0,1.44-.33,1.44-1.18S-134.23,360.41-135.22,360.2Zm3.59-.83a1.53,1.53,0,0,0-1.58,1.59,1.53,1.53,0,0,0,1.59,1.59,1.47,1.47,0,0,0,1.47-1h-.65a.85.85,0,0,1-.81.46.91.91,0,0,1-1-.87h2.48A1.53,1.53,0,0,0-131.63,359.37Zm0,.54a.86.86,0,0,1,.87.71h-1.77A.89.89,0,0,1-131.63,359.91Zm2.16,2.57h.63v-4.27h-.63Zm2.82-3.11a1.52,1.52,0,0,0-1.57,1.59,1.53,1.53,0,0,0,1.58,1.59,1.47,1.47,0,0,0,1.47-1h-.65a.85.85,0,0,1-.81.46.91.91,0,0,1-1-.87h2.48A1.53,1.53,0,0,0-126.65,359.37Zm0,.54a.86.86,0,0,1,.87.71h-1.77A.89.89,0,0,1-126.65,359.91Zm3.63,2.64a1.48,1.48,0,0,0,1.51-1.18h-.65a.88.88,0,0,1-.86.6.94.94,0,0,1-.94-1,.94.94,0,0,1,.95-1,.85.85,0,0,1,.85.59h.65a1.46,1.46,0,0,0-1.5-1.17A1.55,1.55,0,0,0-124.6,361,1.55,1.55,0,0,0-123,362.55Zm4.29-.73a2.22,2.22,0,0,1-.65.15c-.4,0-.6-.25-.6-.69V360h1.25v-.59H-120v-.83l-.63.14v.69h-.56V360h.56v1.29a1.09,1.09,0,0,0,1.12,1.24,1.9,1.9,0,0,0,.87-.22Zm1-3.76a.38.38,0,0,0-.4.38.38.38,0,0,0,.4.39.38.38,0,0,0,.41-.39A.38.38,0,0,0-117.74,358.06Zm-.31,4.42h.63v-3.05H-118Zm2.83-3.11A1.56,1.56,0,0,0-116.8,361a1.56,1.56,0,0,0,1.58,1.59,1.55,1.55,0,0,0,1.58-1.59A1.55,1.55,0,0,0-115.22,359.37Zm0,.59a1,1,0,0,1,1,1,.94.94,0,0,1-1,1,.94.94,0,0,1-.94-1A1,1,0,0,1-115.22,360Zm3.86-.59a1.1,1.1,0,0,0-1,.57v-.51H-113v3.05h.63V360.9c0-.59.29-.94.82-.94s.67.25.67.73v1.79h.63v-1.92A1.05,1.05,0,0,0-111.36,359.37Zm5.84.06V360a1.25,1.25,0,0,0-1.07-.58,1.46,1.46,0,0,0-1.41,1.57,1.45,1.45,0,0,0,1.41,1.57,1.26,1.26,0,0,0,1.07-.57v.53a.79.79,0,0,1-.87.9.8.8,0,0,1-.85-.57h-.65a1.42,1.42,0,0,0,1.52,1.13,1.38,1.38,0,0,0,1.47-1.49v-3Zm-.94,2.49a.92.92,0,0,1-.91-1,.91.91,0,0,1,.91-1,.93.93,0,0,1,.94,1A.93.93,0,0,1-106.46,361.92Zm4.67-2.49V360a1.24,1.24,0,0,0-1.07-.58,1.46,1.46,0,0,0-1.41,1.59,1.46,1.46,0,0,0,1.41,1.59,1.24,1.24,0,0,0,1.07-.58v.51h.62v-3.05Zm-.94,2.52a.92.92,0,0,1-.91-1,.92.92,0,0,1,.91-1,.94.94,0,0,1,.94,1A.93.93,0,0,1-102.73,362Zm4.5-.13a2.22,2.22,0,0,1-.65.15c-.39,0-.6-.25-.6-.69V360h1.25v-.59h-1.25v-.83l-.62.14v.69h-.57V360h.57v1.29A1.08,1.08,0,0,0-99,362.55a1.9,1.9,0,0,0,.87-.22Zm2-2.45A1.52,1.52,0,0,0-97.79,361a1.53,1.53,0,0,0,1.58,1.59,1.47,1.47,0,0,0,1.47-1h-.65a.85.85,0,0,1-.81.46.9.9,0,0,1-1-.87h2.47A1.53,1.53,0,0,0-96.22,359.37Zm0,.54a.86.86,0,0,1,.87.71h-1.77A.9.9,0,0,1-96.22,359.91Z" transform="translate(187.63 -155.28)"/><path class="cls-4" d="M-135.25,366.71h-1.33v3.39h.26v-1.25h1.07a1.06,1.06,0,0,0,1.16-1.08A1,1,0,0,0-135.25,366.71Zm0,1.89h-1.06V367h1.06a.79.79,0,0,1,.9.81A.8.8,0,0,1-135.26,368.6Zm3-1.22a1.33,1.33,0,0,0-1.35,1.4,1.32,1.32,0,0,0,1.36,1.38,1.26,1.26,0,0,0,1.23-.78h-.26a1,1,0,0,1-1,.53,1.05,1.05,0,0,1-1.11-1.06H-131A1.31,1.31,0,0,0-132.3,367.38Zm0,.25a1,1,0,0,1,1.05,1h-2.13A1.06,1.06,0,0,1-132.3,367.63Zm3.22-.25a1,1,0,0,0-1,.72v-.66h-.26v2.66h.26v-1.29c0-.71.39-1.16,1-1.16h.17v-.25Zm1.76,2.78c.57,0,1.06-.26,1.06-.79s-.37-.56-1-.74-.88-.22-.88-.49.33-.51.79-.51a.82.82,0,0,1,.84.49h.26a1,1,0,0,0-1.11-.74c-.59,0-1,.28-1,.77s.28.53,1,.72c.55.14.87.2.87.52s-.36.52-.8.52-.89-.19-1-.64h-.26A1.15,1.15,0,0,0-127.32,370.16Zm2.91-2.78a1.36,1.36,0,0,0-1.37,1.39,1.36,1.36,0,0,0,1.37,1.39,1.35,1.35,0,0,0,1.37-1.39A1.36,1.36,0,0,0-124.41,367.38Zm0,.25a1.11,1.11,0,0,1,1.11,1.14,1.1,1.1,0,0,1-1.11,1.14,1.1,1.1,0,0,1-1.11-1.14A1.1,1.1,0,0,1-124.41,367.63Zm3.31-.25a1,1,0,0,0-1,.68v-.62h-.26v2.66h.26v-1.34c0-.67.35-1.13,1-1.13a.71.71,0,0,1,.76.81v1.66h.25v-1.69A.91.91,0,0,0-121.1,367.38Zm4,.06v.64a1.22,1.22,0,0,0-1.12-.7,1.28,1.28,0,0,0-1.26,1.39,1.28,1.28,0,0,0,1.27,1.39,1.23,1.23,0,0,0,1.11-.69v.63h.26v-2.66Zm-1.08,2.47a1,1,0,0,1-1-1.14,1,1,0,0,1,1-1.14,1.09,1.09,0,0,1,1.09,1.14A1.08,1.08,0,0,1-118.19,369.91Zm2.15.19h.26v-3.73H-116Zm2.61-3.81a.2.2,0,0,0-.2.2.19.19,0,0,0,.2.2.19.19,0,0,0,.21-.2A.2.2,0,0,0-113.43,366.29Zm-.12,3.81h.26v-2.66h-.26Zm2.33-2.72a1,1,0,0,0-1,.68v-.62h-.26v2.66h.26v-1.34c0-.67.35-1.13,1-1.13.47,0,.75.27.75.81v1.66h.26v-1.69A.91.91,0,0,0-111.22,367.38Zm3.5,2.4a1.55,1.55,0,0,1-.6.14c-.48,0-.71-.32-.71-.84v-1.4h1.3v-.24H-109v-.73l-.26.06v.67h-.54v.24h.54v1.41c0,.68.34,1.07.93,1.07a1.58,1.58,0,0,0,.68-.16Zm1.74-2.4a1.33,1.33,0,0,0-1.35,1.4,1.32,1.32,0,0,0,1.37,1.38,1.28,1.28,0,0,0,1.23-.78H-105a1,1,0,0,1-1,.53,1,1,0,0,1-1.1-1.06h2.4A1.31,1.31,0,0,0-106,367.38Zm0,.25a1,1,0,0,1,1,1h-2.13A1.06,1.06,0,0,1-106,367.63Zm3.22-.25a1,1,0,0,0-1,.72v-.66H-104v2.66h.26v-1.29a1,1,0,0,1,1-1.16h.17v-.25Zm2.6.06-.94,2.42-.94-2.42h-.27l1,2.66h.33l1.05-2.66Zm.94-1.15a.2.2,0,0,0-.21.2.2.2,0,0,0,.21.2.2.2,0,0,0,.21-.2A.2.2,0,0,0-99.22,366.29Zm-.13,3.81h.26v-2.66h-.26Zm2.27-2.72a1.32,1.32,0,0,0-1.34,1.4,1.31,1.31,0,0,0,1.36,1.38,1.28,1.28,0,0,0,1.23-.78h-.27a1,1,0,0,1-1,.53,1,1,0,0,1-1.1-1.06h2.4A1.31,1.31,0,0,0-97.08,367.38Zm0,.25a1,1,0,0,1,1,1h-2.13A1.06,1.06,0,0,1-97.08,367.63Zm5.11-.19-.26.84-.47,1.55-.46-1.55-.26-.84h-.33l-.25.84-.46,1.56-.46-1.56-.26-.84h-.26l.81,2.66h.33l.27-.9.43-1.48h0l.43,1.49.28.89h.32l.82-2.66Zm1.83,2.72c.57,0,1.06-.26,1.06-.79s-.37-.56-1-.74-.88-.22-.88-.49.33-.51.78-.51a.82.82,0,0,1,.85.49h.26a1,1,0,0,0-1.11-.74c-.59,0-1,.28-1,.77s.28.53,1.05.72c.55.14.87.2.87.52s-.36.52-.8.52-.89-.19-1-.64h-.26A1.15,1.15,0,0,0-90.14,370.16Z" transform="translate(187.63 -155.28)"/><path class="cls-5" d="M-127.5,347.31l-1.07.41v.54l.77-.31v2.75h.55v-3.39Zm2.29,1.09a1,1,0,0,0-.53.14l.95-1.23h-.65c-.79,1.05-1.22,1.57-1.22,2.21a1.22,1.22,0,0,0,1.29,1.24,1.22,1.22,0,0,0,1.3-1.24A1.09,1.09,0,0,0-125.21,348.4Zm-.16,1.84a.69.69,0,0,1-.73-.71.69.69,0,0,1,.74-.71.68.68,0,0,1,.73.7A.7.7,0,0,1-125.37,350.24Zm3.5-1.25h-1.6v.52h1.6Zm1.49,1.19h0l.53-.46c.69-.61,1-.91,1-1.43a1.06,1.06,0,0,0-1.17-1,1.23,1.23,0,0,0-1.29,1.15h.55a.68.68,0,0,1,.71-.63c.42,0,.65.24.65.54s-.19.47-1,1.13l-1,.87v.39h2.57v-.52Zm4.1-1.26a.75.75,0,0,0,.44-.7,1.05,1.05,0,0,0-1.18-1,1.14,1.14,0,0,0-1.24,1h.55a.62.62,0,0,1,.68-.51c.41,0,.64.21.64.51s-.22.44-.64.44h-.36v.48h.46c.48,0,.65.2.65.49s-.25.55-.7.55a.69.69,0,0,1-.77-.55h-.56a1.22,1.22,0,0,0,1.34,1.07c.74,0,1.24-.38,1.24-1A.81.81,0,0,0-116.28,348.92Zm1.42,1.15a.34.34,0,0,0-.36.34.34.34,0,0,0,.36.35.35.35,0,0,0,.36-.35A.35.35,0,0,0-114.86,350.07Zm2.23-2.82c-.88,0-1.41.65-1.41,1.75s.53,1.76,1.41,1.76,1.42-.67,1.42-1.76S-111.74,347.25-112.63,347.25Zm0,3c-.54,0-.86-.38-.86-1.24s.32-1.23.86-1.23.86.38.86,1.23S-112.09,350.24-112.63,350.24Zm3.32-1.84a1,1,0,0,0-.53.14l.94-1.23h-.65c-.79,1.05-1.21,1.57-1.21,2.21a1.22,1.22,0,0,0,1.29,1.24,1.22,1.22,0,0,0,1.29-1.24A1.08,1.08,0,0,0-109.31,348.4Zm-.16,1.84a.7.7,0,0,1-.74-.71.69.69,0,0,1,.74-.71.69.69,0,0,1,.74.7A.7.7,0,0,1-109.47,350.24Z" transform="translate(187.63 -155.28)"/><rect class="cls-3" x="50.59" y="230.07" width="37.42" height="9.36" rx="0.93"/><path class="cls-4" d="M-135,399.14h-1.59V403h.62v-1.31h1a1.25,1.25,0,0,0,1.36-1.29A1.24,1.24,0,0,0-135,399.14Zm0,2H-136v-1.37h.94a.66.66,0,0,1,.75.68A.66.66,0,0,1-135,401.11Zm3.64-1.2a1,1,0,0,0-1,.67V400H-133v3h.62v-1.4a1,1,0,0,1,1-1.07h.19v-.64Zm2.1,0a1.56,1.56,0,0,0-1.58,1.59,1.56,1.56,0,0,0,1.58,1.59,1.55,1.55,0,0,0,1.58-1.59A1.55,1.55,0,0,0-129.28,399.91Zm0,.59a1,1,0,0,1,.95,1,.94.94,0,0,1-.95,1,.94.94,0,0,1-.94-1A1,1,0,0,1-129.28,400.5Zm4.58-.53v.52a1.22,1.22,0,0,0-1.06-.58,1.46,1.46,0,0,0-1.41,1.57,1.45,1.45,0,0,0,1.41,1.58,1.24,1.24,0,0,0,1.06-.58V403a.79.79,0,0,1-.86.9.8.8,0,0,1-.85-.57h-.65a1.42,1.42,0,0,0,1.52,1.13,1.38,1.38,0,0,0,1.47-1.49v-3Zm-.93,2.49a.92.92,0,0,1-.91-1,.92.92,0,0,1,.91-1,.94.94,0,0,1,.94,1A.94.94,0,0,1-125.63,402.46Zm3.93-2.55a1,1,0,0,0-1,.67V400h-.63v3h.63v-1.4a1,1,0,0,1,1-1.07h.19v-.64Zm3,.06v.52a1.24,1.24,0,0,0-1.07-.58,1.46,1.46,0,0,0-1.41,1.59,1.46,1.46,0,0,0,1.41,1.59,1.24,1.24,0,0,0,1.07-.58V403h.62v-3Zm-.94,2.52a.92.92,0,0,1-.91-1,.92.92,0,0,1,.91-1,.94.94,0,0,1,.94,1A.93.93,0,0,1-119.6,402.49Zm5.84-2.58a1.1,1.1,0,0,0-1,.63.93.93,0,0,0-.94-.63,1,1,0,0,0-1,.55V400h-.63v3h.63v-1.58c0-.55.25-.94.74-.94s.61.24.61.7V403h.63v-1.58c0-.55.26-.94.75-.94s.61.24.61.7V403h.62v-2A1,1,0,0,0-113.76,399.91Zm4.75,3.18c.72,0,1.3-.32,1.3-1s-.47-.73-1.3-.93c-.53-.13-.72-.18-.72-.37s.24-.35.64-.35.63.12.71.37h.64a1.2,1.2,0,0,0-1.33-.92c-.77,0-1.29.35-1.29,1s.36.68,1.21.89c.51.12.8.16.8.41s-.25.35-.65.35-.78-.15-.87-.49h-.64A1.36,1.36,0,0,0-109,403.09Zm4.09-.73a2.16,2.16,0,0,1-.65.15c-.39,0-.59-.25-.59-.69v-1.26h1.25V400h-1.25v-.83l-.63.14V400h-.57v.59h.57v1.29a1.09,1.09,0,0,0,1.11,1.24,1.86,1.86,0,0,0,.87-.22ZM-102,400v.52a1.21,1.21,0,0,0-1.07-.58,1.46,1.46,0,0,0-1.4,1.59,1.45,1.45,0,0,0,1.41,1.59,1.21,1.21,0,0,0,1.06-.58V403h.63v-3Zm-.93,2.52a.92.92,0,0,1-.91-1,.92.92,0,0,1,.91-1,1,1,0,0,1,.94,1A.94.94,0,0,1-102.94,402.49Zm3.93-2.58a1,1,0,0,0-1,.67V400h-.63v3h.63v-1.4a1,1,0,0,1,1-1.07h.19v-.64Zm3,2.45a2.22,2.22,0,0,1-.65.15c-.4,0-.6-.25-.6-.69v-1.26H-96V400H-97.3v-.83l-.63.14V400h-.56v.59h.56v1.29a1.09,1.09,0,0,0,1.12,1.24,1.9,1.9,0,0,0,.87-.22Zm4.75-3.61v1.74a1.22,1.22,0,0,0-1.07-.58,1.46,1.46,0,0,0-1.4,1.59,1.45,1.45,0,0,0,1.4,1.59,1.22,1.22,0,0,0,1.07-.58V403h.63v-4.27Zm-.93,3.74a.92.92,0,0,1-.91-1,.92.92,0,0,1,.91-1,.94.94,0,0,1,.93,1A.93.93,0,0,1-92.23,402.49Zm4.66-2.52v.52a1.22,1.22,0,0,0-1.07-.58A1.46,1.46,0,0,0-90,401.5a1.45,1.45,0,0,0,1.4,1.59,1.22,1.22,0,0,0,1.07-.58V403h.62v-3Zm-.93,2.52a.92.92,0,0,1-.91-1,.92.92,0,0,1,.91-1,.94.94,0,0,1,.93,1A.93.93,0,0,1-88.5,402.49Zm4.49-.13a2.16,2.16,0,0,1-.65.15c-.39,0-.6-.25-.6-.69v-1.26H-84V400h-1.26v-.83l-.62.14V400h-.57v.59h.57v1.29a1.09,1.09,0,0,0,1.11,1.24,1.86,1.86,0,0,0,.87-.22Zm2-2.45a1.52,1.52,0,0,0-1.57,1.59A1.53,1.53,0,0,0-82,403.09a1.48,1.48,0,0,0,1.47-1h-.65a.87.87,0,0,1-.82.46.9.9,0,0,1-1-.87h2.48A1.54,1.54,0,0,0-82,399.91Zm0,.54a.87.87,0,0,1,.88.71H-82.9A.91.91,0,0,1-82,400.45Z" transform="translate(187.63 -155.28)"/><path class="cls-5" d="M-124.16,391.06h0l.53-.46c.7-.61,1.05-.91,1.05-1.43a1.07,1.07,0,0,0-1.17-1,1.23,1.23,0,0,0-1.29,1.15h.55a.69.69,0,0,1,.72-.62c.41,0,.64.24.64.54s-.19.47-.95,1.13l-1,.86v.4h2.58v-.53Zm4.06-1.25a.76.76,0,0,0,.47-.73,1,1,0,0,0-1.17-.95c-.67,0-1.18.39-1.18.95a.77.77,0,0,0,.46.73.84.84,0,0,0-.56.84c0,.62.55,1,1.28,1s1.27-.38,1.27-1A.84.84,0,0,0-120.1,389.81Zm-.7-1.16c.39,0,.62.2.62.5s-.17.45-.62.45-.63-.19-.63-.45S-121.2,388.65-120.8,388.65Zm0,2.48c-.45,0-.74-.19-.74-.53s.26-.53.74-.53.72.17.72.53S-120.36,391.13-120.8,391.13Zm2.22-.17a.33.33,0,0,0-.35.34.34.34,0,0,0,.35.35.34.34,0,0,0,.36-.35A.34.34,0,0,0-118.58,391Zm2.24-2.83c-.88,0-1.41.66-1.41,1.76s.53,1.76,1.41,1.76,1.41-.67,1.41-1.76S-115.45,388.13-116.34,388.13Zm0,3c-.54,0-.86-.38-.86-1.23s.32-1.23.86-1.23.86.38.86,1.23S-115.8,391.12-116.34,391.12Zm3.31-1.83a1.05,1.05,0,0,0-.52.13l.94-1.23h-.65c-.79,1.05-1.22,1.57-1.22,2.21a1.22,1.22,0,0,0,1.29,1.25,1.22,1.22,0,0,0,1.3-1.24A1.09,1.09,0,0,0-113,389.29Zm-.16,1.83a.69.69,0,0,1-.73-.71.68.68,0,0,1,.74-.7.69.69,0,0,1,.74.7A.69.69,0,0,1-113.19,391.12Z" transform="translate(187.63 -155.28)"/><circle class="cls-4" cx="26.44" cy="62.13" r="7.38"/><path class="cls-3" d="M-162.71,215.11c-1.17,0-1.87.87-1.87,2.25s.7,2.26,1.87,2.26,1.88-.88,1.88-2.26S-161.53,215.11-162.71,215.11Zm0,3.66c-.65,0-1-.46-1-1.41s.32-1.4,1-1.4,1,.46,1,1.4S-162,218.77-162.71,218.77Zm3.87-3.59-1.46.57v.88l1-.41v3.33h.89v-4.37Z" transform="translate(187.63 -155.28)"/><path d="M-162.71,215a1.8,1.8,0,0,0-1.46.65,2.64,2.64,0,0,0-.53,1.72h.23a2.43,2.43,0,0,1,.47-1.57,1.62,1.62,0,0,1,1.29-.57Zm-2,2.37a2.67,2.67,0,0,0,.53,1.73,1.83,1.83,0,0,0,1.46.65v-.23a1.62,1.62,0,0,1-1.29-.57,2.44,2.44,0,0,1-.47-1.58Zm2,2.38a1.83,1.83,0,0,0,1.47-.66,2.64,2.64,0,0,0,.53-1.72h-.23a2.46,2.46,0,0,1-.47,1.58,1.63,1.63,0,0,1-1.3.57Zm2-2.38a2.61,2.61,0,0,0-.53-1.71,1.83,1.83,0,0,0-1.47-.66v.23a1.63,1.63,0,0,1,1.3.57,2.45,2.45,0,0,1,.47,1.57Zm-2,1.3a.72.72,0,0,1-.64-.3,1.8,1.8,0,0,1-.22-1h-.23a2,2,0,0,0,.27,1.13.93.93,0,0,0,.82.4Zm-.86-1.3a1.79,1.79,0,0,1,.22-1,.72.72,0,0,1,.64-.3v-.23a.93.93,0,0,0-.82.4,1.9,1.9,0,0,0-.27,1.12Zm.86-1.29a.7.7,0,0,1,.64.3,1.71,1.71,0,0,1,.22,1h.23a2,2,0,0,0-.26-1.12,1,1,0,0,0-.83-.4Zm.86,1.29a1.72,1.72,0,0,1-.22,1,.7.7,0,0,1-.64.3v.23a1,1,0,0,0,.83-.4,2,2,0,0,0,.26-1.13Zm3-2.18v-.11h0Zm-1.46.57,0-.11-.08,0v.08Zm0,.88h-.12v.17l.16-.07Zm1-.41h.11v-.17l-.16.06Zm0,3.33h-.12v.11h.12Zm.89,0v.11h.11v-.11Zm0-4.37h.11v-.11h-.11Zm-.45-.1-1.46.56.08.21,1.46-.56Zm-1.54.67v.88h.23v-.88Zm.16,1,1-.41-.09-.21-1,.41Zm.82-.51v3.33h.23v-3.33Zm.12,3.44h.89v-.23h-.89Zm1-.11v-4.37h-.23v4.37Zm-.11-4.48h-.41v.23h.41Z" transform="translate(187.63 -155.28)"/><circle class="cls-4" cx="26.44" cy="110.64" r="7.38"/><path class="cls-3" d="M-163.28,263.62c-1.18,0-1.87.87-1.87,2.25s.69,2.26,1.87,2.26,1.88-.88,1.88-2.26S-162.1,263.62-163.28,263.62Zm0,3.66c-.65,0-1-.46-1-1.41s.33-1.41,1-1.41,1,.47,1,1.41S-162.62,267.28-163.28,267.28Zm3.77-.07h0l.54-.47c.78-.68,1.24-1.07,1.24-1.74a1.4,1.4,0,0,0-1.53-1.37,1.58,1.58,0,0,0-1.68,1.54h.9c.07-.45.3-.7.74-.7a.59.59,0,0,1,.67.57c0,.32-.19.49-1.08,1.28l-1.27,1.11v.64h3.35v-.85Z" transform="translate(187.63 -155.28)"/><path d="M-163.28,263.5a1.84,1.84,0,0,0-1.47.65,2.69,2.69,0,0,0-.52,1.72h.23a2.43,2.43,0,0,1,.47-1.57,1.6,1.6,0,0,1,1.29-.57Zm-2,2.37a2.67,2.67,0,0,0,.52,1.72,1.84,1.84,0,0,0,1.47.66V268a1.6,1.6,0,0,1-1.29-.57,2.46,2.46,0,0,1-.47-1.58Zm2,2.38a1.83,1.83,0,0,0,1.47-.66,2.69,2.69,0,0,0,.52-1.72h-.22a2.46,2.46,0,0,1-.47,1.58,1.63,1.63,0,0,1-1.3.57Zm2-2.38a2.66,2.66,0,0,0-.52-1.71,1.83,1.83,0,0,0-1.47-.66v.23a1.63,1.63,0,0,1,1.3.57,2.45,2.45,0,0,1,.47,1.57Zm-2,1.3a.72.72,0,0,1-.64-.3,1.8,1.8,0,0,1-.22-1h-.23a2,2,0,0,0,.26,1.13,1,1,0,0,0,.83.4Zm-.86-1.3a1.79,1.79,0,0,1,.22-1,.72.72,0,0,1,.64-.3v-.23a1,1,0,0,0-.83.4,2,2,0,0,0-.26,1.12Zm.86-1.29a.71.71,0,0,1,.64.3,1.79,1.79,0,0,1,.22,1h.23a2,2,0,0,0-.26-1.12,1,1,0,0,0-.83-.4Zm.86,1.29a1.8,1.8,0,0,1-.22,1,.71.71,0,0,1-.64.3v.23a1,1,0,0,0,.83-.4,2,2,0,0,0,.26-1.13Zm2.91,1.34-.05-.1.05.21Zm0,0,.05.1h0Zm.54-.47.07.09h0Zm-2-1.57H-161v.12h.12Zm.9,0v.11h.1v-.1Zm.33,1.15.08.09h0Zm-1.27,1.11-.08-.08,0,0v.05Zm0,.64h-.12v.11h.12Zm3.35,0v.11h.11v-.11Zm0-.85h.11v-.11h-.11Zm-1.84.1h0l-.1-.2h0Zm0,0,.54-.47-.15-.17-.53.47Zm.54-.47a8.18,8.18,0,0,0,.93-.89,1.41,1.41,0,0,0,.36-.94h-.23a1.25,1.25,0,0,1-.3.8,8.91,8.91,0,0,1-.91.86Zm1.29-1.83a1.52,1.52,0,0,0-1.65-1.49v.23a1.29,1.29,0,0,1,1.42,1.26Zm-1.65-1.49a1.81,1.81,0,0,0-1.24.45,1.72,1.72,0,0,0-.55,1.2h.23a1.45,1.45,0,0,1,.47-1,1.58,1.58,0,0,1,1.09-.39Zm-1.68,1.77h.9V265h-.9Zm1-.1a.73.73,0,0,1,.2-.44.56.56,0,0,1,.43-.15v-.23a.84.84,0,0,0-.59.21,1,1,0,0,0-.26.58Zm.63-.59a.59.59,0,0,1,.43.14.44.44,0,0,1,.13.31h.22a.66.66,0,0,0-.19-.47.83.83,0,0,0-.59-.21Zm.56.45a.37.37,0,0,1,0,.18.69.69,0,0,1-.14.21,11.4,11.4,0,0,1-.86.81l.15.17a10,10,0,0,0,.88-.83,1.06,1.06,0,0,0,.18-.27.65.65,0,0,0,.05-.27Zm-1,1.2-1.28,1.11.15.17,1.28-1.11Zm-1.32,1.19v.64h.23v-.64Zm.12.75h3.35v-.23H-161Zm3.46-.11v-.85h-.23v.85Zm-.11-1h-1.89v.22h1.89Z" transform="translate(187.63 -155.28)"/><circle class="cls-4" cx="26.44" cy="151.87" r="7.38"/><path class="cls-3" d="M-163.33,304.85c-1.18,0-1.88.87-1.88,2.26s.7,2.26,1.88,2.26,1.87-.88,1.87-2.26S-162.15,304.85-163.33,304.85Zm0,3.67c-.66,0-1-.47-1-1.41s.32-1.41,1-1.41,1,.47,1,1.41S-162.68,308.52-163.33,308.52Zm5.11-1.52a1,1,0,0,0,.52-.88c0-.74-.65-1.27-1.56-1.27a1.5,1.5,0,0,0-1.63,1.38h.9a.64.64,0,0,1,.71-.54c.47,0,.68.24.68.55s-.26.44-.66.44h-.47v.78h.58c.51,0,.68.18.68.48s-.23.58-.74.58-.74-.16-.81-.59h-.91a1.56,1.56,0,0,0,1.73,1.44c1,0,1.63-.49,1.63-1.34A1.05,1.05,0,0,0-158.22,307Z" transform="translate(187.63 -155.28)"/><path d="M-163.33,304.74a1.82,1.82,0,0,0-1.47.65,2.67,2.67,0,0,0-.52,1.72h.22a2.46,2.46,0,0,1,.47-1.58,1.63,1.63,0,0,1,1.3-.57Zm-2,2.37a2.69,2.69,0,0,0,.52,1.72,1.82,1.82,0,0,0,1.47.65v-.23a1.6,1.6,0,0,1-1.3-.57,2.43,2.43,0,0,1-.47-1.57Zm2,2.37a1.84,1.84,0,0,0,1.47-.65,2.71,2.71,0,0,0,.52-1.72h-.23a2.45,2.45,0,0,1-.47,1.57,1.6,1.6,0,0,1-1.29.57Zm2-2.37a2.69,2.69,0,0,0-.52-1.72,1.84,1.84,0,0,0-1.47-.65V305a1.6,1.6,0,0,1,1.29.57,2.48,2.48,0,0,1,.47,1.58Zm-2,1.29a.7.7,0,0,1-.64-.3,1.7,1.7,0,0,1-.23-1h-.23a2,2,0,0,0,.27,1.12,1,1,0,0,0,.83.4Zm-.87-1.29a1.73,1.73,0,0,1,.23-1,.7.7,0,0,1,.64-.3v-.23a1,1,0,0,0-.83.4,2,2,0,0,0-.27,1.13Zm.87-1.3a.72.72,0,0,1,.64.3,1.83,1.83,0,0,1,.22,1h.22a2,2,0,0,0-.26-1.13.92.92,0,0,0-.82-.4Zm.86,1.3a1.79,1.79,0,0,1-.22,1,.72.72,0,0,1-.64.3v.23a.92.92,0,0,0,.82-.4,2,2,0,0,0,.26-1.12Zm4.25-.11-.05-.1-.21.11.22.1Zm-2.67-.77H-161v.13h.12Zm.9,0v.12h.09l0-.09Zm.26.45v-.12h-.12v.12Zm0,.78h-.12v.11h.12Zm-.29.47.11,0,0-.09H-160Zm-.91,0v-.11H-161v.12Zm2.77-.83a1.08,1.08,0,0,0,.57-1h-.23a.86.86,0,0,1-.45.78Zm.57-1a1.49,1.49,0,0,0-1.67-1.38V305c.87,0,1.44.5,1.44,1.16Zm-1.67-1.38a1.88,1.88,0,0,0-1.17.37,1.58,1.58,0,0,0-.57,1.11l.23,0a1.35,1.35,0,0,1,.48-1,1.64,1.64,0,0,1,1-.32Zm-1.63,1.61h.9v-.23h-.9Zm1-.09a.6.6,0,0,1,.21-.36.7.7,0,0,1,.39-.09v-.23a.86.86,0,0,0-.53.14.8.8,0,0,0-.29.49Zm.6-.45a.66.66,0,0,1,.44.12.41.41,0,0,1,.12.31h.23a.63.63,0,0,0-.2-.48.89.89,0,0,0-.59-.18Zm.56.43a.23.23,0,0,1-.12.24.78.78,0,0,1-.42.08v.23a1.09,1.09,0,0,0,.53-.11.47.47,0,0,0,.24-.44Zm-.54.32h-.47v.23h.47Zm-.59.12v.78h.23v-.78Zm.12.89h.58v-.23h-.58Zm.58,0a.76.76,0,0,1,.46.11.3.3,0,0,1,.1.26h.23a.53.53,0,0,0-.19-.44.93.93,0,0,0-.6-.16Zm.56.37a.4.4,0,0,1-.13.34.74.74,0,0,1-.49.13v.23a1,1,0,0,0,.64-.19.62.62,0,0,0,.21-.51Zm-.62.47a.81.81,0,0,1-.48-.12.52.52,0,0,1-.22-.38l-.23,0a.78.78,0,0,0,.32.53,1.11,1.11,0,0,0,.61.16Zm-.81-.59h-.91V308h.91Zm-1,.12a1.58,1.58,0,0,0,.59,1.16,2,2,0,0,0,1.25.38v-.23a1.79,1.79,0,0,1-1.11-.33,1.36,1.36,0,0,1-.51-1Zm1.84,1.54a2,2,0,0,0,1.25-.38,1.32,1.32,0,0,0,.49-1.07h-.23a1.13,1.13,0,0,1-.4.9,1.81,1.81,0,0,1-1.11.32Zm1.74-1.45a1.15,1.15,0,0,0-.71-1.13l-.09.21a.92.92,0,0,1,.57.92Z" transform="translate(187.63 -155.28)"/><circle class="cls-4" cx="26.44" cy="193.45" r="7.38"/><path class="cls-3" d="M-163.42,346.43c-1.18,0-1.88.87-1.88,2.26s.7,2.25,1.88,2.25,1.87-.87,1.87-2.25S-162.25,346.43-163.42,346.43Zm0,3.67c-.66,0-1-.47-1-1.41s.32-1.41,1-1.41,1,.47,1,1.41S-162.77,350.1-163.42,350.1Zm6-1H-158V346.5h-1.31l-1.74,2.58v.84h2.16v.95h.89v-.95h.61Zm-2.71,0,1.16-1.74h.05v1.74Z" transform="translate(187.63 -155.28)"/><path d="M-163.42,346.32a1.82,1.82,0,0,0-1.47.65,2.62,2.62,0,0,0-.52,1.72h.22a2.46,2.46,0,0,1,.47-1.58,1.63,1.63,0,0,1,1.3-.57Zm-2,2.37a2.63,2.63,0,0,0,.52,1.72,1.82,1.82,0,0,0,1.47.65v-.23a1.6,1.6,0,0,1-1.3-.57,2.43,2.43,0,0,1-.47-1.57Zm2,2.37a1.78,1.78,0,0,0,1.46-.66,2.61,2.61,0,0,0,.53-1.71h-.23a2.45,2.45,0,0,1-.47,1.57,1.62,1.62,0,0,1-1.29.57Zm2-2.37A2.64,2.64,0,0,0-162,347a1.8,1.8,0,0,0-1.46-.65v.22a1.62,1.62,0,0,1,1.29.57,2.48,2.48,0,0,1,.47,1.58Zm-2,1.29a.73.73,0,0,1-.65-.3,1.79,1.79,0,0,1-.22-1h-.23a2,2,0,0,0,.27,1.12,1,1,0,0,0,.83.4Zm-.87-1.29a1.83,1.83,0,0,1,.22-1,.73.73,0,0,1,.65-.3v-.23a1,1,0,0,0-.83.4,2,2,0,0,0-.27,1.13Zm.87-1.3a.7.7,0,0,1,.63.3,1.73,1.73,0,0,1,.23,1h.22a2,2,0,0,0-.26-1.13.93.93,0,0,0-.82-.4Zm.86,1.3a1.7,1.7,0,0,1-.23,1,.7.7,0,0,1-.63.3v.23a.93.93,0,0,0,.82-.4,2,2,0,0,0,.26-1.12Zm5.14.39h.12V349h-.11Zm-.61,0h-.11v.12h.11Zm0-2.57h.12v-.11H-158Zm-1.31,0v-.11h-.06l0,.05Zm-1.74,2.58-.1-.06,0,0v0Zm0,.84h-.12V350h.12Zm2.16,0h.11v-.12h-.11Zm0,.95H-159V351h.11Zm.89,0V351h.12v-.11Zm0-.95v-.12h-.11v.12Zm.61,0V350h.11v-.11Zm-2.71-.84-.09-.06-.12.18h.21Zm1.16-1.74v-.11H-159l0,0Zm.05,0h.11v-.11h-.11Zm0,1.74v.12h.11v-.12Zm1.51-.1H-158v.23h.61Zm-.5.1V346.5h-.23v2.57Zm-.12-2.68h-1.31v.23H-158Zm-1.41.05-1.74,2.58.19.12,1.74-2.57Zm-1.76,2.64v.84h.23v-.84Zm.12.95h2.16v-.23h-2.16Zm2.05-.11v.95h.22v-.95Zm.11,1.06h.89v-.22h-.89Zm1-.11v-.95h-.23v.95ZM-158,350h.62v-.22H-158Zm.73-.12v-.83h-.23v.83Zm-2.73-.77,1.15-1.74-.19-.13-1.15,1.74Zm1.06-1.69h.05v-.23H-159Zm-.06-.12v1.74h.22v-1.74Zm.11,1.63h-1.21v.23h1.21Z" transform="translate(187.63 -155.28)"/><circle class="cls-4" cx="26.44" cy="235.72" r="7.38"/><path class="cls-3" d="M-163.34,388.7c-1.18,0-1.88.87-1.88,2.26s.7,2.26,1.88,2.26,1.88-.88,1.88-2.26S-162.16,388.7-163.34,388.7Zm0,3.67c-.65,0-1-.47-1-1.41s.33-1.41,1-1.41,1,.47,1,1.41S-162.68,392.37-163.34,392.37Zm4.32-2.16a1.33,1.33,0,0,0-.74.2l.17-.79h1.82v-.84h-2.49l-.54,2.53h.85a.81.81,0,0,1,.72-.36.69.69,0,0,1,.76.7.71.71,0,0,1-.77.73.73.73,0,0,1-.79-.63h-.91a1.57,1.57,0,0,0,1.71,1.47,1.54,1.54,0,0,0,1.67-1.56A1.39,1.39,0,0,0-159,390.21Z" transform="translate(187.63 -155.28)"/><path d="M-163.34,388.59a1.84,1.84,0,0,0-1.47.65,2.69,2.69,0,0,0-.52,1.72h.23a2.46,2.46,0,0,1,.47-1.58,1.6,1.6,0,0,1,1.29-.56Zm-2,2.37a2.69,2.69,0,0,0,.52,1.72,1.84,1.84,0,0,0,1.47.65v-.23a1.6,1.6,0,0,1-1.29-.56,2.48,2.48,0,0,1-.47-1.58Zm2,2.37a1.84,1.84,0,0,0,1.47-.65,2.69,2.69,0,0,0,.52-1.72h-.22a2.37,2.37,0,0,1-.48,1.57,1.56,1.56,0,0,1-1.29.57Zm2-2.37a2.69,2.69,0,0,0-.52-1.72,1.84,1.84,0,0,0-1.47-.65v.23a1.56,1.56,0,0,1,1.29.57,2.37,2.37,0,0,1,.48,1.57Zm-2,1.3A.72.72,0,0,1-164,392a1.77,1.77,0,0,1-.22-1h-.23a2,2,0,0,0,.26,1.12,1,1,0,0,0,.83.4Zm-.86-1.3a1.77,1.77,0,0,1,.22-1,.72.72,0,0,1,.64-.31v-.22a1,1,0,0,0-.83.4,2,2,0,0,0-.26,1.12Zm.86-1.3a.72.72,0,0,1,.64.31,1.77,1.77,0,0,1,.22,1h.23a2,2,0,0,0-.26-1.12,1,1,0,0,0-.83-.4Zm.86,1.3a1.77,1.77,0,0,1-.22,1,.72.72,0,0,1-.64.31v.22a1,1,0,0,0,.83-.4,2,2,0,0,0,.26-1.12Zm2.72-.55-.11,0,0,.26.22-.14Zm.17-.79v-.11h-.1l0,.09Zm1.82,0v.12h.12v-.12Zm0-.84h.12v-.12h-.12Zm-2.49,0v-.12h-.09l0,.09Zm-.54,2.53-.12,0,0,.14h.14Zm.85,0v.11h.06l0-.05Zm-.08.44h.11v-.1h-.1Zm-.91,0v-.11h-.12v.12Zm1.92-1.65a1.46,1.46,0,0,0-.8.21l.12.2a1.19,1.19,0,0,1,.68-.19Zm-.63.33.17-.78-.23,0-.16.79Zm.06-.69h1.82v-.23h-1.82Zm1.94-.12v-.84h-.23v.84Zm-.12-1h-2.49v.23h2.49Zm-2.6.09-.55,2.53.23.05.54-2.53Zm-.43,2.67h.85v-.22h-.85Zm1-.05a.69.69,0,0,1,.62-.31v-.23a1,1,0,0,0-.82.42Zm.62-.31a.68.68,0,0,1,.47.16.56.56,0,0,1,.18.43h.23a.78.78,0,0,0-.25-.6,1,1,0,0,0-.63-.22Zm.65.59a.58.58,0,0,1-.17.43.68.68,0,0,1-.49.18v.23a.94.94,0,0,0,.65-.24.87.87,0,0,0,.24-.6Zm-.66.61a.75.75,0,0,1-.45-.13.59.59,0,0,1-.23-.39l-.22,0a.76.76,0,0,0,.32.55,1,1,0,0,0,.58.17Zm-.79-.62h-.91v.23h.91Zm-1,.12a1.6,1.6,0,0,0,.61,1.19,2,2,0,0,0,1.21.38v-.23a1.77,1.77,0,0,1-1.07-.33,1.35,1.35,0,0,1-.52-1Zm1.82,1.57a1.85,1.85,0,0,0,1.26-.45,1.57,1.57,0,0,0,.52-1.22h-.22a1.34,1.34,0,0,1-.45,1,1.61,1.61,0,0,1-1.11.39Zm1.78-1.67a1.55,1.55,0,0,0-.47-1.16,1.65,1.65,0,0,0-1.1-.4v.22a1.4,1.4,0,0,1,.94.35,1.3,1.3,0,0,1,.41,1Z" transform="translate(187.63 -155.28)"/></svg>